<svg xmlns="http://www.w3.org/2000/svg" viewBox="0 0 1720 1755" xml:space="preserve" style="fill-rule:evenodd;clip-rule:evenodd;stroke-linejoin:round;stroke-miterlimit:1.41421"><path d="m2446.838 859.648 799.408-816.97 799.408 816.97-799.408 816.968z" style="clip-rule:evenodd;fill:#042442;fill-rule:evenodd;stroke-linejoin:round;stroke-miterlimit:1.41420996" transform="translate(-2386.246 17.853)"/><path style="font-style:normal;font-variant:normal;font-weight:400;font-stretch:normal;font-size:297.38995361px;line-height:1.25;font-family:'Arial Black';-inkscape-font-specification:'Arial Black, Normal';font-variant-ligatures:normal;font-variant-caps:normal;font-variant-numeric:normal;font-feature-settings:normal;text-align:start;letter-spacing:0;word-spacing:0;writing-mode:lr-tb;text-anchor:start;clip-rule:evenodd;fill:#62adde;fill-opacity:1;fill-rule:evenodd;stroke:none;stroke-width:18.58707237;stroke-linejoin:round;stroke-miterlimit:1.41420996" d="M3043.018 900.726h-74.928l-10.31 35.141h-67.232l80.01-212.878h71.734l80.01 212.878h-68.83zm-13.795-46.031-23.524-76.526-23.38 76.526z" transform="translate(-2386.246 17.853)"/><path style="font-style:normal;font-variant:normal;font-weight:400;font-stretch:normal;font-size:297.38665771px;line-height:1.25;font-family:'Arial Black';-inkscape-font-specification:'Arial Black, Normal';font-variant-ligatures:normal;font-variant-caps:normal;font-variant-numeric:normal;font-feature-settings:normal;text-align:center;letter-spacing:0;word-spacing:0;writing-mode:lr-tb;text-anchor:middle;clip-rule:evenodd;fill:#042442;fill-opacity:1;fill-rule:evenodd;stroke:#f5c90b;stroke-width:15.00094509;stroke-linejoin:round;stroke-miterlimit:1.4356575;stroke-dasharray:none;stroke-opacity:1" d="m3287.683 848.959 57.648 17.425q-5.81 24.25-18.297 40.513-12.488 16.263-31.075 24.54-18.441 8.277-47.048 8.277-34.704 0-56.776-10.02-21.927-10.164-37.9-35.575-15.972-25.412-15.972-65.054 0-52.856 28.025-81.171 28.17-28.461 79.574-28.461 40.223 0 63.166 16.263 23.088 16.264 34.269 49.952l-58.084 12.924q-3.05-9.73-6.39-14.231-5.517-7.55-13.503-11.617-7.987-4.065-17.861-4.065-22.362 0-34.27 18.005-9.002 13.36-9.002 41.966 0 35.43 10.746 48.644 10.745 13.07 30.203 13.07 18.877 0 28.46-10.601 9.73-10.6 14.087-30.784z" transform="translate(-2386.246 17.853)"/><path style="font-style:normal;font-variant:normal;font-weight:400;font-stretch:normal;font-size:297.38995361px;line-height:1.25;font-family:'Arial Black';-inkscape-font-specification:'Arial Black, Normal';font-variant-ligatures:normal;font-variant-caps:normal;font-variant-numeric:normal;font-feature-settings:normal;text-align:start;letter-spacing:0;word-spacing:0;writing-mode:lr-tb;text-anchor:start;clip-rule:evenodd;fill:#62adde;fill-opacity:1;fill-rule:evenodd;stroke:none;stroke-width:18.58707237;stroke-linejoin:round;stroke-miterlimit:1.41420996" d="M3369.014 722.99h86.545l33.399 129.527 33.253-129.528h86.255v212.878h-53.728V773.522l-41.675 162.345h-48.646l-41.53-162.345v162.345h-53.873z" transform="translate(-2386.246 17.853)"/><path style="font-style:normal;font-variant:normal;font-weight:400;font-stretch:normal;font-size:297.38665771px;line-height:1.25;font-family:'Arial Black';-inkscape-font-specification:'Arial Black, Normal';font-variant-ligatures:normal;font-variant-caps:normal;font-variant-numeric:normal;font-feature-settings:normal;text-align:center;letter-spacing:0;word-spacing:0;writing-mode:lr-tb;text-anchor:middle;clip-rule:evenodd;fill:#042442;fill-opacity:1;fill-rule:evenodd;stroke:#f5c90b;stroke-width:15.00094509;stroke-linejoin:round;stroke-miterlimit:1.4356575;stroke-dasharray:none;stroke-opacity:1" d="M3278.172 281.33h65.634v126.912q0 18.877-5.954 35.721-5.808 16.7-18.441 29.332-12.488 12.488-26.283 17.57-19.167 7.116-46.031 7.116-15.537 0-33.98-2.178-18.295-2.179-30.638-8.568-12.342-6.534-22.652-18.441-10.165-11.907-13.94-24.54-6.1-20.33-6.1-36.012V281.33h65.635V411.29q0 17.425 9.584 27.3 9.729 9.728 26.864 9.728 16.989 0 26.573-9.583 9.729-9.73 9.729-27.445zM3208.835 1226.797h65.924v212.875h-65.924z" transform="translate(-2386.246 17.853)"/><path d="M3360.193 383.358v20.564c83.46 20.344 160.51 62.832 222.29 123.844 89.156 88.047 139.214 207.415 139.214 331.881 0 124.467-50.058 243.834-139.213 331.881-78.514 77.537-181.685 125.161-291.34 135.428v20.086c114.904-10.325 223.117-60.03 305.395-141.283 92.923-91.769 145.158-216.282 145.158-346.112s-52.235-254.343-145.158-346.111c-65.561-64.745-147.588-109.456-236.346-130.178zm-236.787 2.164c-85.34 21.577-164.088 65.437-227.453 128.014-92.924 91.768-145.16 216.281-145.16 346.111 0 129.83 52.236 254.343 145.16 346.111 80.15 79.154 184.914 128.37 296.5 140.407v-20.121c-106.331-11.952-206.058-59.078-282.446-134.516-89.155-88.047-139.213-207.414-139.213-331.881 0-124.466 50.058-243.834 139.213-331.88 59.58-58.84 133.362-100.452 213.399-121.589z" style="color:#000;font-style:normal;font-variant:normal;font-weight:400;font-stretch:normal;font-size:medium;line-height:normal;font-family:sans-serif;font-variant-ligatures:normal;font-variant-position:normal;font-variant-caps:normal;font-variant-numeric:normal;font-variant-alternates:normal;font-feature-settings:normal;text-indent:0;text-align:start;text-decoration:none;text-decoration-line:none;text-decoration-style:solid;text-decoration-color:#000;letter-spacing:normal;word-spacing:normal;text-transform:none;writing-mode:lr-tb;direction:ltr;text-orientation:mixed;dominant-baseline:auto;baseline-shift:baseline;text-anchor:start;white-space:normal;shape-padding:0;clip-rule:evenodd;display:inline;overflow:visible;visibility:visible;opacity:1;isolation:auto;mix-blend-mode:normal;color-interpolation:sRGB;color-interpolation-filters:linearRGB;solid-color:#000;solid-opacity:1;vector-effect:none;fill:#f5c90b;fill-opacity:1;fill-rule:evenodd;stroke:none;stroke-width:20;stroke-linecap:round;stroke-linejoin:round;stroke-miterlimit:1.4356575;stroke-dasharray:none;stroke-dashoffset:0;stroke-opacity:1;color-rendering:auto;image-rendering:auto;shape-rendering:auto;text-rendering:auto;enable-background:accumulate" transform="translate(-2386.246 17.853)"/></svg>